<mxfile host="Electron" modified="2023-06-29T10:19:35.333Z" agent="Mozilla/5.0 (Windows NT 10.0; Win64; x64) AppleWebKit/537.36 (KHTML, like Gecko) draw.io/21.5.1 Chrome/112.0.5615.204 Electron/24.6.0 Safari/537.36" etag="pzpIaVjTgTnCowXh088s" version="21.5.1" type="device">
  <diagram name="Pagina-1" id="wRxvcKm_via75sKur1ka">
    <mxGraphModel dx="2049" dy="1206" grid="1" gridSize="10" guides="1" tooltips="1" connect="1" arrows="1" fold="1" page="1" pageScale="1" pageWidth="827" pageHeight="1169" math="0" shadow="0">
      <root>
        <mxCell id="0" />
        <mxCell id="1" parent="0" />
        <mxCell id="vM8YNVDXoCBFp4_VPFxI-14" value="" style="endArrow=none;dashed=1;html=1;dashPattern=1 3;strokeWidth=2;rounded=0;entryX=0.5;entryY=1;entryDx=0;entryDy=0;" edge="1" parent="1" target="vM8YNVDXoCBFp4_VPFxI-5">
          <mxGeometry width="50" height="50" relative="1" as="geometry">
            <mxPoint x="90" y="1120" as="sourcePoint" />
            <mxPoint x="530" y="460" as="targetPoint" />
          </mxGeometry>
        </mxCell>
        <mxCell id="vM8YNVDXoCBFp4_VPFxI-15" value="" style="endArrow=none;dashed=1;html=1;dashPattern=1 3;strokeWidth=2;rounded=0;entryX=0.5;entryY=1;entryDx=0;entryDy=0;" edge="1" parent="1" source="vM8YNVDXoCBFp4_VPFxI-27" target="vM8YNVDXoCBFp4_VPFxI-7">
          <mxGeometry width="50" height="50" relative="1" as="geometry">
            <mxPoint x="310" y="850" as="sourcePoint" />
            <mxPoint x="320" y="220" as="targetPoint" />
          </mxGeometry>
        </mxCell>
        <mxCell id="vM8YNVDXoCBFp4_VPFxI-4" value="Note:&lt;br&gt;Actor" style="shape=note;size=20;whiteSpace=wrap;html=1;align=left;" vertex="1" parent="1">
          <mxGeometry x="40" y="80" width="100" height="40" as="geometry" />
        </mxCell>
        <mxCell id="vM8YNVDXoCBFp4_VPFxI-5" value="User" style="rounded=1;whiteSpace=wrap;html=1;" vertex="1" parent="1">
          <mxGeometry x="40" y="160" width="100" height="40" as="geometry" />
        </mxCell>
        <mxCell id="vM8YNVDXoCBFp4_VPFxI-6" value="Note:&lt;br&gt;Boundary" style="shape=note;size=20;whiteSpace=wrap;html=1;align=left;" vertex="1" parent="1">
          <mxGeometry x="260" y="80" width="100" height="40" as="geometry" />
        </mxCell>
        <mxCell id="vM8YNVDXoCBFp4_VPFxI-7" value="Auction GUI" style="rounded=1;whiteSpace=wrap;html=1;" vertex="1" parent="1">
          <mxGeometry x="260" y="160" width="100" height="40" as="geometry" />
        </mxCell>
        <mxCell id="vM8YNVDXoCBFp4_VPFxI-8" value="Note:&lt;br&gt;Controller" style="shape=note;size=20;whiteSpace=wrap;html=1;align=left;" vertex="1" parent="1">
          <mxGeometry x="480" y="80" width="100" height="40" as="geometry" />
        </mxCell>
        <mxCell id="vM8YNVDXoCBFp4_VPFxI-9" value="Auction Manager&lt;br&gt;" style="rounded=1;whiteSpace=wrap;html=1;" vertex="1" parent="1">
          <mxGeometry x="480" y="160" width="100" height="40" as="geometry" />
        </mxCell>
        <mxCell id="vM8YNVDXoCBFp4_VPFxI-10" value="Note:&lt;br&gt;Entity" style="shape=note;size=20;whiteSpace=wrap;html=1;align=left;" vertex="1" parent="1">
          <mxGeometry x="700" y="80" width="100" height="40" as="geometry" />
        </mxCell>
        <mxCell id="vM8YNVDXoCBFp4_VPFxI-11" value="Orders" style="rounded=1;whiteSpace=wrap;html=1;" vertex="1" parent="1">
          <mxGeometry x="700" y="160" width="100" height="40" as="geometry" />
        </mxCell>
        <mxCell id="vM8YNVDXoCBFp4_VPFxI-12" value="Note:&lt;br&gt;Entity" style="shape=note;size=20;whiteSpace=wrap;html=1;align=left;" vertex="1" parent="1">
          <mxGeometry x="920" y="80" width="100" height="40" as="geometry" />
        </mxCell>
        <mxCell id="vM8YNVDXoCBFp4_VPFxI-13" value="Auction offer" style="rounded=1;whiteSpace=wrap;html=1;" vertex="1" parent="1">
          <mxGeometry x="920" y="160" width="100" height="40" as="geometry" />
        </mxCell>
        <mxCell id="vM8YNVDXoCBFp4_VPFxI-16" value="" style="endArrow=none;dashed=1;html=1;dashPattern=1 3;strokeWidth=2;rounded=0;entryX=0.5;entryY=1;entryDx=0;entryDy=0;" edge="1" parent="1" source="vM8YNVDXoCBFp4_VPFxI-29" target="vM8YNVDXoCBFp4_VPFxI-9">
          <mxGeometry width="50" height="50" relative="1" as="geometry">
            <mxPoint x="530" y="850" as="sourcePoint" />
            <mxPoint x="529.71" y="210" as="targetPoint" />
          </mxGeometry>
        </mxCell>
        <mxCell id="vM8YNVDXoCBFp4_VPFxI-17" value="" style="endArrow=none;dashed=1;html=1;dashPattern=1 3;strokeWidth=2;rounded=0;entryX=0.5;entryY=1;entryDx=0;entryDy=0;" edge="1" parent="1" target="vM8YNVDXoCBFp4_VPFxI-11">
          <mxGeometry width="50" height="50" relative="1" as="geometry">
            <mxPoint x="750" y="1120" as="sourcePoint" />
            <mxPoint x="749.71" y="210" as="targetPoint" />
          </mxGeometry>
        </mxCell>
        <mxCell id="vM8YNVDXoCBFp4_VPFxI-18" value="" style="endArrow=none;dashed=1;html=1;dashPattern=1 3;strokeWidth=2;rounded=0;entryX=0.5;entryY=1;entryDx=0;entryDy=0;" edge="1" parent="1" source="vM8YNVDXoCBFp4_VPFxI-35" target="vM8YNVDXoCBFp4_VPFxI-13">
          <mxGeometry width="50" height="50" relative="1" as="geometry">
            <mxPoint x="969.71" y="870" as="sourcePoint" />
            <mxPoint x="970" y="210" as="targetPoint" />
          </mxGeometry>
        </mxCell>
        <mxCell id="vM8YNVDXoCBFp4_VPFxI-19" value="" style="rounded=0;whiteSpace=wrap;html=1;" vertex="1" parent="1">
          <mxGeometry x="300" y="290" width="20" height="70" as="geometry" />
        </mxCell>
        <mxCell id="vM8YNVDXoCBFp4_VPFxI-20" value="" style="endArrow=classic;html=1;rounded=0;entryX=0;entryY=0;entryDx=0;entryDy=0;" edge="1" parent="1" target="vM8YNVDXoCBFp4_VPFxI-19">
          <mxGeometry width="50" height="50" relative="1" as="geometry">
            <mxPoint x="90" y="290" as="sourcePoint" />
            <mxPoint x="470" y="440" as="targetPoint" />
          </mxGeometry>
        </mxCell>
        <mxCell id="vM8YNVDXoCBFp4_VPFxI-21" value="Create&lt;br&gt;" style="edgeLabel;html=1;align=center;verticalAlign=middle;resizable=0;points=[];" vertex="1" connectable="0" parent="vM8YNVDXoCBFp4_VPFxI-20">
          <mxGeometry x="-0.0413" relative="1" as="geometry">
            <mxPoint y="-10" as="offset" />
          </mxGeometry>
        </mxCell>
        <mxCell id="vM8YNVDXoCBFp4_VPFxI-23" value="" style="endArrow=classic;html=1;rounded=0;exitX=1;exitY=0.5;exitDx=0;exitDy=0;" edge="1" parent="1" source="vM8YNVDXoCBFp4_VPFxI-19">
          <mxGeometry width="50" height="50" relative="1" as="geometry">
            <mxPoint x="330" y="330" as="sourcePoint" />
            <mxPoint x="530" y="325" as="targetPoint" />
          </mxGeometry>
        </mxCell>
        <mxCell id="vM8YNVDXoCBFp4_VPFxI-24" value="Create&lt;br&gt;" style="edgeLabel;html=1;align=center;verticalAlign=middle;resizable=0;points=[];" vertex="1" connectable="0" parent="vM8YNVDXoCBFp4_VPFxI-23">
          <mxGeometry x="-0.0413" relative="1" as="geometry">
            <mxPoint y="-10" as="offset" />
          </mxGeometry>
        </mxCell>
        <mxCell id="vM8YNVDXoCBFp4_VPFxI-25" value="" style="endArrow=classic;html=1;rounded=0;entryX=0;entryY=0;entryDx=0;entryDy=0;" edge="1" parent="1">
          <mxGeometry width="50" height="50" relative="1" as="geometry">
            <mxPoint x="90" y="450" as="sourcePoint" />
            <mxPoint x="300" y="450" as="targetPoint" />
          </mxGeometry>
        </mxCell>
        <mxCell id="vM8YNVDXoCBFp4_VPFxI-26" value="Make an offer&lt;br&gt;" style="edgeLabel;html=1;align=center;verticalAlign=middle;resizable=0;points=[];" vertex="1" connectable="0" parent="vM8YNVDXoCBFp4_VPFxI-25">
          <mxGeometry x="-0.0413" relative="1" as="geometry">
            <mxPoint y="-10" as="offset" />
          </mxGeometry>
        </mxCell>
        <mxCell id="vM8YNVDXoCBFp4_VPFxI-28" value="" style="endArrow=none;dashed=1;html=1;dashPattern=1 3;strokeWidth=2;rounded=0;entryX=0.5;entryY=1;entryDx=0;entryDy=0;" edge="1" parent="1" target="vM8YNVDXoCBFp4_VPFxI-27">
          <mxGeometry width="50" height="50" relative="1" as="geometry">
            <mxPoint x="310" y="1120" as="sourcePoint" />
            <mxPoint x="310" y="200" as="targetPoint" />
          </mxGeometry>
        </mxCell>
        <mxCell id="vM8YNVDXoCBFp4_VPFxI-27" value="" style="rounded=0;whiteSpace=wrap;html=1;" vertex="1" parent="1">
          <mxGeometry x="300" y="450" width="20" height="250" as="geometry" />
        </mxCell>
        <mxCell id="vM8YNVDXoCBFp4_VPFxI-30" value="" style="endArrow=none;dashed=1;html=1;dashPattern=1 3;strokeWidth=2;rounded=0;entryX=0.5;entryY=1;entryDx=0;entryDy=0;" edge="1" parent="1" source="vM8YNVDXoCBFp4_VPFxI-59" target="vM8YNVDXoCBFp4_VPFxI-29">
          <mxGeometry width="50" height="50" relative="1" as="geometry">
            <mxPoint x="530" y="1120" as="sourcePoint" />
            <mxPoint x="530" y="200" as="targetPoint" />
          </mxGeometry>
        </mxCell>
        <mxCell id="vM8YNVDXoCBFp4_VPFxI-29" value="" style="rounded=0;whiteSpace=wrap;html=1;" vertex="1" parent="1">
          <mxGeometry x="520" y="470" width="20" height="200" as="geometry" />
        </mxCell>
        <mxCell id="vM8YNVDXoCBFp4_VPFxI-31" value="" style="endArrow=classic;html=1;rounded=0;entryX=0;entryY=0;entryDx=0;entryDy=0;" edge="1" parent="1" target="vM8YNVDXoCBFp4_VPFxI-29">
          <mxGeometry width="50" height="50" relative="1" as="geometry">
            <mxPoint x="320" y="470" as="sourcePoint" />
            <mxPoint x="510" y="470" as="targetPoint" />
          </mxGeometry>
        </mxCell>
        <mxCell id="vM8YNVDXoCBFp4_VPFxI-32" value="Prepare make an offer" style="edgeLabel;html=1;align=center;verticalAlign=middle;resizable=0;points=[];" vertex="1" connectable="0" parent="vM8YNVDXoCBFp4_VPFxI-31">
          <mxGeometry x="-0.0413" relative="1" as="geometry">
            <mxPoint y="-10" as="offset" />
          </mxGeometry>
        </mxCell>
        <mxCell id="vM8YNVDXoCBFp4_VPFxI-33" value="" style="endArrow=classic;html=1;rounded=0;" edge="1" parent="1">
          <mxGeometry width="50" height="50" relative="1" as="geometry">
            <mxPoint x="540" y="490" as="sourcePoint" />
            <mxPoint x="960" y="490" as="targetPoint" />
          </mxGeometry>
        </mxCell>
        <mxCell id="vM8YNVDXoCBFp4_VPFxI-34" value="Fetch current offer" style="edgeLabel;html=1;align=center;verticalAlign=middle;resizable=0;points=[];" vertex="1" connectable="0" parent="vM8YNVDXoCBFp4_VPFxI-33">
          <mxGeometry x="-0.0413" relative="1" as="geometry">
            <mxPoint y="-10" as="offset" />
          </mxGeometry>
        </mxCell>
        <mxCell id="vM8YNVDXoCBFp4_VPFxI-36" value="" style="endArrow=none;dashed=1;html=1;dashPattern=1 3;strokeWidth=2;rounded=0;entryX=0.5;entryY=1;entryDx=0;entryDy=0;" edge="1" parent="1" target="vM8YNVDXoCBFp4_VPFxI-35">
          <mxGeometry width="50" height="50" relative="1" as="geometry">
            <mxPoint x="970" y="1120" as="sourcePoint" />
            <mxPoint x="970" y="200" as="targetPoint" />
          </mxGeometry>
        </mxCell>
        <mxCell id="vM8YNVDXoCBFp4_VPFxI-35" value="" style="rounded=0;whiteSpace=wrap;html=1;" vertex="1" parent="1">
          <mxGeometry x="960" y="490" width="20" height="40" as="geometry" />
        </mxCell>
        <mxCell id="vM8YNVDXoCBFp4_VPFxI-37" value="Return info" style="html=1;verticalAlign=bottom;endArrow=open;dashed=1;endSize=8;edgeStyle=elbowEdgeStyle;elbow=vertical;curved=0;rounded=0;exitX=0;exitY=1;exitDx=0;exitDy=0;" edge="1" parent="1" source="vM8YNVDXoCBFp4_VPFxI-35" target="vM8YNVDXoCBFp4_VPFxI-29">
          <mxGeometry x="-0.0017" relative="1" as="geometry">
            <mxPoint x="860" y="420" as="sourcePoint" />
            <mxPoint x="560" y="530" as="targetPoint" />
            <mxPoint as="offset" />
          </mxGeometry>
        </mxCell>
        <mxCell id="vM8YNVDXoCBFp4_VPFxI-38" value="" style="rounded=0;whiteSpace=wrap;html=1;" vertex="1" parent="1">
          <mxGeometry x="530" y="585" width="20" height="20" as="geometry" />
        </mxCell>
        <mxCell id="vM8YNVDXoCBFp4_VPFxI-39" value="" style="endArrow=classic;html=1;rounded=0;entryX=1;entryY=0;entryDx=0;entryDy=0;" edge="1" parent="1" target="vM8YNVDXoCBFp4_VPFxI-38">
          <mxGeometry width="50" height="50" relative="1" as="geometry">
            <mxPoint x="540" y="555" as="sourcePoint" />
            <mxPoint x="680" y="520" as="targetPoint" />
            <Array as="points">
              <mxPoint x="570" y="555" />
              <mxPoint x="570" y="585" />
            </Array>
          </mxGeometry>
        </mxCell>
        <mxCell id="vM8YNVDXoCBFp4_VPFxI-40" value="Verify offer is valid" style="edgeLabel;html=1;align=center;verticalAlign=middle;resizable=0;points=[];" vertex="1" connectable="0" parent="vM8YNVDXoCBFp4_VPFxI-39">
          <mxGeometry x="0.0603" relative="1" as="geometry">
            <mxPoint x="20" y="-2" as="offset" />
          </mxGeometry>
        </mxCell>
        <mxCell id="vM8YNVDXoCBFp4_VPFxI-41" value="" style="endArrow=open;html=1;rounded=0;endFill=0;strokeWidth=1;endSize=6;startSize=6;jumpSize=6;targetPerimeterSpacing=0;sourcePerimeterSpacing=0;exitX=1.083;exitY=0.805;exitDx=0;exitDy=0;exitPerimeter=0;" edge="1" parent="1">
          <mxGeometry width="50" height="50" relative="1" as="geometry">
            <mxPoint x="540" y="651" as="sourcePoint" />
            <mxPoint x="970" y="650" as="targetPoint" />
            <Array as="points">
              <mxPoint x="628.34" y="650" />
            </Array>
          </mxGeometry>
        </mxCell>
        <mxCell id="vM8YNVDXoCBFp4_VPFxI-42" value="Update current offer" style="edgeLabel;html=1;align=center;verticalAlign=middle;resizable=0;points=[];" vertex="1" connectable="0" parent="vM8YNVDXoCBFp4_VPFxI-41">
          <mxGeometry x="0.0603" relative="1" as="geometry">
            <mxPoint x="-18" y="-2" as="offset" />
          </mxGeometry>
        </mxCell>
        <mxCell id="vM8YNVDXoCBFp4_VPFxI-50" value="" style="endArrow=classic;html=1;rounded=0;entryX=0;entryY=0;entryDx=0;entryDy=0;" edge="1" parent="1" target="vM8YNVDXoCBFp4_VPFxI-56">
          <mxGeometry width="50" height="50" relative="1" as="geometry">
            <mxPoint x="90" y="850" as="sourcePoint" />
            <mxPoint x="290" y="850" as="targetPoint" />
          </mxGeometry>
        </mxCell>
        <mxCell id="vM8YNVDXoCBFp4_VPFxI-51" value="Insert payment data" style="edgeLabel;html=1;align=center;verticalAlign=middle;resizable=0;points=[];" vertex="1" connectable="0" parent="vM8YNVDXoCBFp4_VPFxI-50">
          <mxGeometry x="-0.0413" relative="1" as="geometry">
            <mxPoint y="-10" as="offset" />
          </mxGeometry>
        </mxCell>
        <mxCell id="vM8YNVDXoCBFp4_VPFxI-56" value="" style="rounded=0;whiteSpace=wrap;html=1;" vertex="1" parent="1">
          <mxGeometry x="300" y="850" width="20" height="170" as="geometry" />
        </mxCell>
        <mxCell id="vM8YNVDXoCBFp4_VPFxI-57" value="" style="endArrow=classic;html=1;rounded=0;entryX=0;entryY=0;entryDx=0;entryDy=0;" edge="1" parent="1" target="vM8YNVDXoCBFp4_VPFxI-59">
          <mxGeometry width="50" height="50" relative="1" as="geometry">
            <mxPoint x="320" y="870" as="sourcePoint" />
            <mxPoint x="510" y="870" as="targetPoint" />
          </mxGeometry>
        </mxCell>
        <mxCell id="vM8YNVDXoCBFp4_VPFxI-58" value="Prepare insert payment data" style="edgeLabel;html=1;align=center;verticalAlign=middle;resizable=0;points=[];" vertex="1" connectable="0" parent="vM8YNVDXoCBFp4_VPFxI-57">
          <mxGeometry x="-0.0413" relative="1" as="geometry">
            <mxPoint y="-10" as="offset" />
          </mxGeometry>
        </mxCell>
        <mxCell id="vM8YNVDXoCBFp4_VPFxI-60" value="" style="endArrow=none;dashed=1;html=1;dashPattern=1 3;strokeWidth=2;rounded=0;entryX=0.5;entryY=1;entryDx=0;entryDy=0;" edge="1" parent="1" target="vM8YNVDXoCBFp4_VPFxI-59">
          <mxGeometry width="50" height="50" relative="1" as="geometry">
            <mxPoint x="530" y="1120" as="sourcePoint" />
            <mxPoint x="530" y="670" as="targetPoint" />
          </mxGeometry>
        </mxCell>
        <mxCell id="vM8YNVDXoCBFp4_VPFxI-59" value="" style="rounded=0;whiteSpace=wrap;html=1;" vertex="1" parent="1">
          <mxGeometry x="520" y="870" width="20" height="120" as="geometry" />
        </mxCell>
        <mxCell id="vM8YNVDXoCBFp4_VPFxI-65" value="" style="rounded=0;whiteSpace=wrap;html=1;" vertex="1" parent="1">
          <mxGeometry x="530" y="930" width="20" height="20" as="geometry" />
        </mxCell>
        <mxCell id="vM8YNVDXoCBFp4_VPFxI-66" value="" style="endArrow=classic;html=1;rounded=0;entryX=1;entryY=0;entryDx=0;entryDy=0;" edge="1" parent="1" target="vM8YNVDXoCBFp4_VPFxI-65">
          <mxGeometry width="50" height="50" relative="1" as="geometry">
            <mxPoint x="540" y="890" as="sourcePoint" />
            <mxPoint x="600" y="960" as="targetPoint" />
            <Array as="points">
              <mxPoint x="580" y="890" />
              <mxPoint x="580" y="930" />
            </Array>
          </mxGeometry>
        </mxCell>
        <mxCell id="vM8YNVDXoCBFp4_VPFxI-67" value="Verify payment&lt;br&gt;data" style="edgeLabel;html=1;align=center;verticalAlign=middle;resizable=0;points=[];" vertex="1" connectable="0" parent="vM8YNVDXoCBFp4_VPFxI-66">
          <mxGeometry x="0.1205" y="-1" relative="1" as="geometry">
            <mxPoint x="11" y="-2" as="offset" />
          </mxGeometry>
        </mxCell>
        <mxCell id="vM8YNVDXoCBFp4_VPFxI-68" value="" style="endArrow=open;html=1;rounded=0;endFill=0;strokeWidth=1;endSize=6;startSize=6;jumpSize=6;targetPerimeterSpacing=0;sourcePerimeterSpacing=0;exitX=1.083;exitY=0.805;exitDx=0;exitDy=0;exitPerimeter=0;" edge="1" parent="1">
          <mxGeometry width="50" height="50" relative="1" as="geometry">
            <mxPoint x="540" y="971" as="sourcePoint" />
            <mxPoint x="750" y="970" as="targetPoint" />
            <Array as="points">
              <mxPoint x="628.34" y="970" />
            </Array>
          </mxGeometry>
        </mxCell>
        <mxCell id="vM8YNVDXoCBFp4_VPFxI-69" value="Insert order" style="edgeLabel;html=1;align=center;verticalAlign=middle;resizable=0;points=[];" vertex="1" connectable="0" parent="vM8YNVDXoCBFp4_VPFxI-68">
          <mxGeometry x="0.0603" relative="1" as="geometry">
            <mxPoint x="-18" y="-2" as="offset" />
          </mxGeometry>
        </mxCell>
        <mxCell id="vM8YNVDXoCBFp4_VPFxI-70" value="Qui ci sono le destroy!!!" style="text;html=1;align=center;verticalAlign=middle;resizable=0;points=[];autosize=1;strokeColor=none;fillColor=none;" vertex="1" parent="1">
          <mxGeometry x="120" y="1130" width="150" height="30" as="geometry" />
        </mxCell>
      </root>
    </mxGraphModel>
  </diagram>
</mxfile>
